<svg width="20" height="20" viewBox="0 0 20 20" fill="none" xmlns="http://www.w3.org/2000/svg">
<path d="M5.58654 15.349C5.32843 15.6082 4.90902 15.6086 4.65041 15.35C4.3918 15.0913 4.3922 14.6719 4.65132 14.4138L14.693 4.41107L15.5893 5.30736L5.58654 15.349Z" fill="black"/>
<path d="M15.8337 12.1074C15.8337 12.4899 15.5236 12.8 15.1411 12.8C14.7586 12.8 14.4485 12.4899 14.4485 12.1074V6.75983C14.4485 6.09266 13.9076 5.55181 13.2404 5.55181H7.89291C7.5104 5.55181 7.20032 5.24172 7.20032 4.85922C7.20032 4.47671 7.5104 4.16663 7.89291 4.16663H14.3948C15.1894 4.16663 15.8337 4.81084 15.8337 5.60551V12.1074Z" fill="black"/>
</svg>
