<svg xmlns="http://www.w3.org/2000/svg" width="17" height="14" fill="none"><path fill="#999" d="M8.305 7.5c.304 0 .586-.14.914-.469L15.656.664c-.281-.266-.789-.398-1.515-.398H2.234c-.625 0-1.07.125-1.32.359l6.469 6.406c.32.328.61.469.922.469ZM.28 11.875l5.242-5.203L.266 1.484c-.118.22-.18.586-.18 1.11v8.164c0 .523.062.898.195 1.117Zm16.032-.016c.117-.218.18-.586.18-1.101V2.594c0-.508-.063-.875-.18-1.086l-5.235 5.164 5.235 5.187ZM2.444 13.08h11.907c.625 0 1.062-.118 1.312-.36l-5.351-5.305-.477.484c-.508.485-.992.72-1.531.72-.547 0-1.024-.235-1.532-.72l-.484-.484-5.344 5.297c.29.242.79.367 1.5.367Z"/></svg>