<svg width="32" height="20" viewBox="0 0 32 20" fill="none" xmlns="http://www.w3.org/2000/svg">
<path fill-rule="evenodd" clip-rule="evenodd" d="M14.4382 14.3757H16.3734V12.4006H14.4382V14.3757ZM5.94491 2.84553C5.49731 2.28763 4.94447 2.0089 4.28595 2.0089C4.01768 2.00629 3.75165 2.05803 3.50387 2.16101C3.25609 2.26399 3.03167 2.41609 2.84413 2.60814C2.66651 2.79308 2.52708 3.01401 2.42539 3.26874C2.32177 3.53166 2.26961 3.81207 2.27175 4.0947C2.27175 4.39744 2.32326 4.67617 2.42539 4.93178C2.52752 5.1874 2.66873 5.40878 2.8499 5.59682C3.03107 5.78487 3.24288 5.93379 3.48622 6.04048C3.73535 6.14904 4.00448 6.20402 4.27618 6.20185C4.89474 6.20185 5.45113 5.93379 5.94491 5.39544V7.73375L5.74776 7.80399C5.47764 7.90374 5.20035 7.9828 4.91827 8.04049C4.66777 8.09028 4.41302 8.11559 4.15762 8.11606C3.65068 8.11744 3.14866 8.01644 2.68161 7.81911C2.21617 7.62464 1.79342 7.34053 1.43738 6.98292C1.07224 6.61382 0.77931 6.17959 0.57371 5.70262C0.356571 5.20918 0.247779 4.66995 0.247779 4.08537C0.247779 3.50035 0.35435 2.96511 0.568381 2.47789C0.771333 2.00661 1.06306 1.57887 1.42761 1.21805C2.1591 0.498876 3.14303 0.0954134 4.16828 0.0942383C4.46401 0.0942383 4.75531 0.125801 5.04172 0.189816C5.32769 0.25383 5.62919 0.352965 5.94491 0.487662V2.84553ZM14.0084 3.23851H16.8028V0.305843H18.7379V7.90446H16.8028V4.77086H14.0088V7.9049H12.0737V0.305398H14.0088L14.0084 3.23851ZM28.6429 5.08293L27.7739 2.55258L26.9049 5.08293H28.6429ZM29.1566 6.5846H26.3911L25.9475 7.9049H23.884L26.7175 0.305398H28.8311L31.6642 7.9049H29.6007L29.1566 6.5846ZM1.93649 15.7969H2.3015C2.68294 15.7969 2.97645 15.716 3.18072 15.5546C3.38453 15.3928 3.48622 15.1617 3.48622 14.8594C3.48622 14.5571 3.38409 14.325 3.18072 14.1641C2.97645 14.0027 2.68294 13.9218 2.3015 13.9218H1.93649V15.7969ZM6.1918 19.9997H3.78196L1.93605 17.0768V19.9997H0V12.4001H3.01198C3.42672 12.4001 3.78906 12.4624 4.09856 12.5864C4.40762 12.7109 4.6625 12.8807 4.86277 13.0954C5.06369 13.3104 5.21858 13.5643 5.31792 13.8414C5.42104 14.1326 5.47273 14.4397 5.47067 14.7487C5.47067 15.3266 5.3339 15.7947 5.06081 16.1543C4.78772 16.5144 4.38453 16.7576 3.85123 16.8856L6.19136 19.9997H6.1918ZM26.8014 16.3508L24.0856 12.4001H26.3964L27.7792 14.4762L29.1513 12.4001H31.4621L28.7366 16.3513V19.9997H26.8014V16.3508Z" fill="white"/>
</svg>
