<svg width="32" height="9" viewBox="0 0 32 9" fill="none" xmlns="http://www.w3.org/2000/svg">
<path fill-rule="evenodd" clip-rule="evenodd" d="M2.19765 3.69817H2.83929C3.54977 3.69817 3.9059 3.38255 3.9059 2.75085C3.9059 2.11915 3.54977 1.80397 2.83929 1.80397H2.19765V3.69817ZM2.19765 7.81066H0.261597V0.211604H3.34285C4.17899 0.211604 4.81931 0.432987 5.26335 0.875755C5.7074 1.31941 5.92987 1.94533 5.92987 2.75085C5.92987 3.55681 5.70785 4.18228 5.26335 4.6255C4.81931 5.06915 4.17899 5.29054 3.34285 5.29054H2.19765V7.81111V7.81066ZM14.2451 3.60749H14.6106C14.9924 3.60749 15.2855 3.52702 15.4893 3.36565C15.6936 3.20473 15.7953 2.97223 15.7953 2.67083C15.7953 2.36809 15.6932 2.13604 15.4893 1.97512C15.2851 1.81375 14.992 1.73284 14.6101 1.73284H14.2451V3.60793V3.60749ZM18.5009 7.81066H16.091L14.2451 4.88778V7.81066H12.3099V0.211159H15.321C15.7367 0.211159 16.0981 0.273395 16.4076 0.397424C16.7167 0.521896 16.9716 0.691713 17.1727 0.906873C17.3734 1.12157 17.528 1.37513 17.627 1.65193C17.7291 1.93466 17.7797 2.23695 17.7797 2.55969C17.7797 3.1376 17.6434 3.60571 17.3708 3.96534C17.0968 4.32543 16.694 4.56859 16.1603 4.69662L18.5009 7.81066ZM25.6753 4.01069C25.6753 4.31298 25.7309 4.59215 25.8436 4.84732C25.9507 5.09625 26.1046 5.3222 26.297 5.51281C26.488 5.70085 26.7104 5.84711 26.964 5.95113C27.2171 6.05515 27.4857 6.10672 27.7686 6.10672C28.3193 6.10941 28.8491 5.89605 29.2446 5.51236C29.4397 5.32281 29.5958 5.09689 29.7042 4.84732C29.8152 4.59215 29.872 4.31298 29.872 4.01069C29.8747 3.72317 29.8175 3.43825 29.7042 3.17405C29.4859 2.6723 29.0799 2.27618 28.5732 2.07069C28.3178 1.96642 28.0444 1.91355 27.7686 1.9151C27.4857 1.9151 27.2175 1.96667 26.964 2.07069C26.7152 2.17172 26.4886 2.32064 26.297 2.50901C26.1061 2.69706 25.9551 2.91933 25.8436 3.17405C25.7296 3.43804 25.6722 3.72308 25.6753 4.01069ZM23.6514 4.01069C23.6514 3.44612 23.7535 2.92066 23.9573 2.43344C24.1543 1.95697 24.4428 1.52381 24.8063 1.15849C25.1773 0.789776 25.619 0.500044 26.1047 0.306736C26.6087 0.102245 27.1629 0 27.7686 0C28.3676 0 28.9205 0.102245 29.4276 0.306736C29.9163 0.499951 30.3611 0.789613 30.7357 1.15849C31.1019 1.52273 31.3923 1.95608 31.5901 2.43344C31.7943 2.92066 31.896 3.44612 31.896 4.01069C31.896 4.57526 31.7939 5.1016 31.5896 5.58883C31.392 6.06588 31.1017 6.49893 30.7357 6.86289C30.3615 7.23218 29.9165 7.52191 29.4276 7.71464C28.9205 7.91913 28.3676 8.02138 27.7686 8.02138C27.1629 8.02138 26.6087 7.91913 26.1047 7.71464C25.6187 7.52182 25.177 7.23203 24.8063 6.86289C24.4428 6.49776 24.1543 6.06474 23.9573 5.58838C23.7531 5.1016 23.6509 4.57526 23.6509 4.01024" fill="#374146"/>
</svg>
