<svg width="215" height="208" viewBox="0 0 215 208" fill="none" xmlns="http://www.w3.org/2000/svg">
<path d="M152.2 88.233H48.2415C39.9084 88.233 33.1074 81.432 33.1074 73.0989C33.1074 64.7658 39.9084 57.9648 48.2415 57.9648H152.087C152.648 57.9648 152.947 58.6375 152.611 59.0485C149.659 62.4864 142.073 73.5847 152.76 87.1493C153.096 87.5978 152.76 88.233 152.2 88.233Z" stroke="#DE6F7E" stroke-width="8" stroke-miterlimit="10"/>
<path d="M168.305 118.501H64.347C56.0139 118.501 49.2129 111.7 49.2129 103.367C49.2129 95.0334 56.0139 88.2324 64.347 88.2324H168.193C168.753 88.2324 169.052 88.9051 168.716 89.3161C165.764 92.754 158.178 103.852 168.866 117.417C169.202 117.865 168.866 118.501 168.305 118.501Z" stroke="#DE6F7E" stroke-width="8" stroke-miterlimit="10"/>
<path d="M152.2 148.733H48.2415C39.9084 148.733 33.1074 141.932 33.1074 133.599C33.1074 125.266 39.9084 118.465 48.2415 118.465H152.087C152.648 118.465 152.947 119.137 152.611 119.549C149.659 122.986 142.073 134.085 152.76 147.649C153.096 148.098 152.76 148.733 152.2 148.733Z" stroke="#DE6F7E" stroke-width="8" stroke-miterlimit="10"/>
<path d="M73.4121 70.8965H97.7014V103.369L85.5567 96.6431L73.4121 103.369V70.8965Z" fill="#F8F8F8"/>
<path d="M72.4189 70.8965H96.7082V103.369L84.5636 96.6431L72.4189 103.369V70.8965Z" stroke="#DE6F7E" stroke-width="8" stroke-miterlimit="10"/>
<path d="M17.7864 148.73H12.667" stroke="#DE6F7E" stroke-width="8" stroke-miterlimit="10"/>
<path d="M22.9434 148.73H48.2416" stroke="#DE6F7E" stroke-width="8" stroke-miterlimit="10"/>
<path d="M105.9 133.635H112.963" stroke="#DE6F7E" stroke-width="8" stroke-miterlimit="10"/>
<path d="M103.808 70.8965H140.167" stroke="#DE6F7E" stroke-width="8" stroke-miterlimit="10"/>
<path d="M55.0049 70.8965H62.1048" stroke="#DE6F7E" stroke-width="8" stroke-miterlimit="10"/>
<path d="M97.9039 133.635H84.5635" stroke="#DE6F7E" stroke-width="8" stroke-miterlimit="10"/>
</svg>