<svg width="218" height="208" viewBox="0 0 218 208" fill="none" xmlns="http://www.w3.org/2000/svg">
<path fill-rule="evenodd" clip-rule="evenodd" d="M143.613 121.807V60.5801C143.613 55.2976 139.316 51 134.033 51H63.5664C58.284 51 53.9863 55.2976 53.9863 60.5801V63.9863H50.5801C45.2976 63.9863 41 68.284 41 73.5664C41 78.8489 45.2976 83.1465 50.5801 83.1465H53.9863V95.9199H50.5801C45.2976 95.9199 41 100.218 41 105.5C41 110.782 45.2976 115.08 50.5801 115.08H53.9863V127.854H50.5801C45.2976 127.854 41 132.151 41 137.434C41 142.716 45.2976 147.014 50.5801 147.014H53.9863V150.207C53.9863 152.752 54.965 155.177 56.742 157.036C58.569 158.947 60.9928 160 63.5664 160H127.646C139.972 160 150 149.877 150 137.434C150 131.357 147.562 125.84 143.613 121.807ZM50.5801 76.7598C48.8193 76.7598 47.3867 75.3272 47.3867 73.5664C47.3867 71.8056 48.8193 70.373 50.5801 70.373H57.1797C58.9405 70.373 60.373 71.8056 60.373 73.5664C60.373 75.3272 58.9405 76.7598 57.1797 76.7598H50.5801ZM50.5801 108.693C48.8193 108.693 47.3867 107.261 47.3867 105.5C47.3867 103.739 48.8193 102.307 50.5801 102.307H57.1797C58.9405 102.307 60.373 103.739 60.373 105.5C60.373 107.261 58.9405 108.693 57.1797 108.693H50.5801ZM57.1797 140.627H50.5801C48.8193 140.627 47.3867 139.194 47.3867 137.434C47.3867 135.673 48.8193 134.24 50.5801 134.24H57.1797C58.9405 134.24 60.373 135.673 60.373 137.434C60.373 139.194 58.9405 140.627 57.1797 140.627ZM63.5664 153.613C61.8654 153.613 60.373 152.021 60.373 150.207V146.464C64.0899 145.146 66.7598 141.597 66.7598 137.434C66.7598 133.271 64.0899 129.721 60.373 128.403V114.531C64.0899 113.213 66.7598 109.663 66.7598 105.5C66.7598 101.337 64.0899 97.7874 60.373 96.4692V82.5972C64.0899 81.279 66.7598 77.7295 66.7598 73.5664C66.7598 69.4033 64.0899 65.8538 60.373 64.5356V60.5801C60.373 58.8193 61.8056 57.3867 63.5664 57.3867H134.033C135.794 57.3867 137.227 58.8193 137.227 60.5801V117.24C134.321 115.856 131.073 115.08 127.646 115.08C115.321 115.08 105.293 125.108 105.293 137.434C105.293 143.773 107.897 149.51 112.081 153.613H63.5664ZM127.646 153.613C118.842 153.613 111.68 146.355 111.68 137.434C111.68 128.63 118.842 121.467 127.646 121.467C136.451 121.467 143.613 128.63 143.613 137.434C143.613 146.355 136.451 153.613 127.646 153.613ZM127.646 76.7598H108.486C106.723 76.7598 105.293 78.1895 105.293 79.9531C105.293 81.7167 106.723 83.1465 108.486 83.1465H127.646C129.41 83.1465 130.84 81.7167 130.84 79.9531C130.84 78.1895 129.41 76.7598 127.646 76.7598ZM108.486 102.307H127.646C129.41 102.307 130.84 103.736 130.84 105.5C130.84 107.264 129.41 108.693 127.646 108.693H108.486C106.723 108.693 105.293 107.264 105.293 105.5C105.293 103.736 106.723 102.307 108.486 102.307ZM134.033 134.24H130.84V131.047C130.84 129.283 129.41 127.854 127.646 127.854C125.883 127.854 124.453 129.283 124.453 131.047V137.434C124.453 139.197 125.883 140.627 127.646 140.627H134.033C135.797 140.627 137.227 139.197 137.227 137.434C137.227 135.67 135.797 134.24 134.033 134.24ZM93.242 71.3086C94.4889 70.0612 96.5109 70.0612 97.7578 71.3084C99.0049 72.5555 99.0049 74.5773 97.7578 75.8244L84.9844 88.5978C84.361 89.2216 83.5437 89.5333 82.7264 89.5333C81.9092 89.5333 81.0919 89.2216 80.4685 88.5981L73.1838 81.3134C71.9367 80.0663 71.9367 78.0444 73.1838 76.7973C74.4309 75.5502 76.453 75.5502 77.6999 76.7973L82.7264 81.8239L93.242 71.3086ZM97.7578 96.8552C96.5109 95.6081 94.4889 95.6081 93.242 96.8554L82.7264 107.371L77.6999 102.344C76.453 101.097 74.4309 101.097 73.1838 102.344C71.9367 103.591 71.9367 105.613 73.1838 106.86L80.4685 114.145C81.0919 114.768 81.9092 115.08 82.7264 115.08C83.5437 115.08 84.361 114.768 84.9844 114.145L97.7578 101.371C99.0049 100.124 99.0049 98.1023 97.7578 96.8552ZM93.242 122.402C94.4889 121.155 96.5109 121.155 97.7578 122.402C99.0049 123.649 99.0049 125.671 97.7578 126.918L84.9844 139.692C84.361 140.315 83.5437 140.627 82.7264 140.627C81.9092 140.627 81.0919 140.315 80.4685 139.692L73.1838 132.407C71.9367 131.16 71.9367 129.138 73.1838 127.891C74.4309 126.644 76.453 126.644 77.6999 127.891L82.7264 132.918L93.242 122.402Z" fill="#77C5D5"/>
</svg>