<svg width="191" height="208" viewBox="0 0 191 208" fill="none" xmlns="http://www.w3.org/2000/svg">
<path d="M80.0411 158.451L80.6429 158.397C83.5633 158.138 85.7204 155.56 85.461 152.64L83.8762 134.799C83.6168 131.879 81.0391 129.722 78.1188 129.981L77.5169 130.035C74.5966 130.294 72.4395 132.872 72.6989 135.792L74.2837 153.633C74.5431 156.553 77.1208 158.71 80.0411 158.451Z" stroke="#77C5D5" stroke-width="8" stroke-linecap="round" stroke-linejoin="round"/>
<path d="M113.387 140.519L113.989 140.466C116.909 140.206 119.066 137.629 118.807 134.708L117.718 122.456C117.459 119.536 114.881 117.379 111.961 117.638L111.359 117.692C108.439 117.951 106.282 120.529 106.541 123.449L107.629 135.701C107.889 138.622 110.466 140.779 113.387 140.519Z" stroke="#77C5D5" stroke-width="8" stroke-linecap="round" stroke-linejoin="round"/>
<path d="M110.901 104.729L128.013 119.049C129.09 119.95 129.766 121.241 129.893 122.64C130.02 124.038 129.588 125.43 128.691 126.51L128.289 126.99C127.384 128.064 126.09 128.734 124.691 128.856C123.292 128.977 121.902 128.539 120.825 127.638L117.913 125.201" stroke="#77C5D5" stroke-width="8" stroke-linecap="round" stroke-linejoin="round"/>
<path d="M121.134 98.6888L131.064 106.998C132.141 107.899 132.817 109.19 132.944 110.589C133.071 111.987 132.639 113.379 131.742 114.46L131.34 114.94C130.435 116.013 129.141 116.683 127.742 116.805C126.343 116.926 124.953 116.488 123.876 115.587L115.403 108.497" stroke="#77C5D5" stroke-width="8" stroke-linecap="round" stroke-linejoin="round"/>
<path d="M114.779 93.3708L125.569 102.4C126.646 103.302 128.036 103.739 129.435 103.618C130.834 103.497 132.128 102.826 133.033 101.753L133.435 101.273C134.305 100.189 134.715 98.808 134.578 97.4254C134.441 96.0427 133.767 94.769 132.701 93.8775L114.166 78.3666L94.9067 81.7778" stroke="#77C5D5" stroke-width="8" stroke-linecap="round" stroke-linejoin="round"/>
<path d="M91.2462 154.988L91.848 154.935C94.7684 154.675 96.9255 152.097 96.666 149.177L94.0827 120.095C93.8233 117.174 91.2456 115.017 88.3253 115.277L87.7234 115.33C84.8031 115.59 82.646 118.167 82.9054 121.088L85.4888 150.17C85.7482 153.09 88.3258 155.247 91.2462 154.988Z" stroke="#77C5D5" stroke-width="8" stroke-linecap="round" stroke-linejoin="round"/>
<path d="M102.092 147.894L102.694 147.841C105.614 147.581 107.771 145.004 107.512 142.083L104.928 113.001C104.669 110.081 102.091 107.923 99.171 108.183L98.5691 108.236C95.6488 108.496 93.4917 111.073 93.7511 113.994L96.3345 143.076C96.5939 145.997 99.1715 148.154 102.092 147.894Z" stroke="#77C5D5" stroke-width="8" stroke-linecap="round" stroke-linejoin="round"/>
<path d="M127.26 27.4243L96.1317 65.5499L74.5256 68.0666C71.1746 68.4535 68.0986 70.1079 65.9287 72.6906L59.3366 80.5681C58.0173 82.1132 57.3538 84.1126 57.4877 86.1399L59.6184 112.713C59.6976 113.64 59.9595 114.543 60.3889 115.368C60.8184 116.194 61.4069 116.927 62.1206 117.524C62.8343 118.121 63.6592 118.571 64.5476 118.849C65.436 119.126 66.3705 119.224 67.2972 119.139C68.214 119.059 69.1059 118.799 69.922 118.374C70.738 117.949 71.4621 117.366 72.0526 116.661C72.6432 115.955 73.0886 115.14 73.3634 114.261C73.6382 113.383 73.7369 112.459 73.6539 111.543L72.3801 96.8578C72.3966 94.9035 73.0076 93.0004 74.132 91.4018C75.5101 89.213 77.3535 87.3546 79.5311 85.9589" stroke="#77C5D5" stroke-width="8" stroke-linecap="round" stroke-linejoin="round"/>
<path d="M30.0439 144.525L42.8127 129.267C44.0044 127.822 44.806 126.096 45.1411 124.254C45.4762 122.411 45.3337 120.513 44.7271 118.741V118.741C44.111 116.955 43.9671 115.04 44.3094 113.182C44.6516 111.323 45.4683 109.585 46.6803 108.135L57.5379 95.1609" stroke="#77C5D5" stroke-width="8" stroke-linecap="round" stroke-linejoin="round"/>
<path d="M45.3331 188.073L74.1023 153.849" stroke="#77C5D5" stroke-width="8" stroke-linecap="round" stroke-linejoin="round"/>
<path d="M114.448 93.0922L90.404 96.2697" stroke="#77C5D5" stroke-width="8" stroke-linecap="round" stroke-linejoin="round"/>
<path d="M138.832 80.6297L130.356 90.7578" stroke="#77C5D5" stroke-width="8" stroke-linecap="round" stroke-linejoin="round"/>
</svg>