<svg width="191" height="208" viewBox="0 0 191 208" fill="none" xmlns="http://www.w3.org/2000/svg">
<path d="M85.5 159C114.495 159 138 135.495 138 106.5C138 77.5051 114.495 54 85.5 54C56.5051 54 33 77.5051 33 106.5C33 135.495 56.5051 159 85.5 159Z" stroke="#EEB250" stroke-width="8" stroke-linecap="round" stroke-linejoin="round"/>
<path d="M122.621 143.629L152.996 174.004" stroke="#EEB250" stroke-width="8" stroke-linecap="round" stroke-linejoin="round"/>
<path d="M89.5073 114.981V114.093C89.5073 107.26 99.4148 104.527 99.4148 95.1661C99.4148 88.06 94.0169 82.6621 85.7493 82.6621C78.6432 82.6621 74.3386 86.6934 72.4937 92.2963C72.3571 92.7746 72.562 93.1163 73.0403 93.3212L78.8482 95.3711C79.3265 95.576 79.7364 95.3711 79.9414 94.8244C80.898 91.8864 82.7429 90.5198 85.6126 90.5198C88.6874 90.5198 90.8055 92.5013 90.8055 95.576C90.8055 101.179 81.103 104.8 81.103 113.546V114.981C81.103 115.459 81.4446 115.801 81.9229 115.801H88.6874C89.1657 115.801 89.5073 115.459 89.5073 114.981ZM85.476 132.746C88.7557 132.746 91.4205 130.082 91.4205 126.733C91.4205 123.454 88.7557 120.789 85.476 120.789C82.1279 120.789 79.4631 123.454 79.4631 126.733C79.4631 130.082 82.1279 132.746 85.476 132.746Z" fill="#EEB250"/>
</svg>